<svg xmlns="http://www.w3.org/2000/svg" xmlns:xlink="http://www.w3.org/1999/xlink" viewBox="0 0 29.8 35"><defs><style>.cls-1{fill:url(#_ÂÁ_Ï_ÌÌ_È_ËÂÌÚ_31);}.cls-2{fill:url(#_ÂÁ_Ï_ÌÌ_È_ËÂÌÚ_31-2);}.cls-3{fill:url(#_ÂÁ_Ï_ÌÌ_È_ËÂÌÚ_31-3);}</style><linearGradient id="_ÂÁ_Ï_ÌÌ_È_ËÂÌÚ_31" y1="17.5" x2="29.8" y2="17.5" gradientUnits="userSpaceOnUse"><stop offset="0" stop-color="#be965d"/><stop offset="0.28" stop-color="#976f40"/><stop offset="0.43" stop-color="#c99b61"/><stop offset="0.56" stop-color="#f0be7b"/><stop offset="0.63" stop-color="#ffcb85"/><stop offset="0.71" stop-color="#eebc79"/><stop offset="0.87" stop-color="#c0935b"/><stop offset="1" stop-color="#976f40"/></linearGradient><linearGradient id="_ÂÁ_Ï_ÌÌ_È_ËÂÌÚ_31-2" x1="6.18" y1="17.5" x2="23.62" y2="17.5" xlink:href="#_ÂÁ_Ï_ÌÌ_È_ËÂÌÚ_31"/><linearGradient id="_ÂÁ_Ï_ÌÌ_È_ËÂÌÚ_31-3" x1="10.5" y1="17.91" x2="19.16" y2="17.91" xlink:href="#_ÂÁ_Ï_ÌÌ_È_ËÂÌÚ_31"/></defs><title>baohanh</title><g id="Layer_2" data-name="Layer 2"><g id="Layer_1-2" data-name="Layer 1"><g id="surface1"><path class="cls-1" d="M29.77,9.5v0c0-.34,0-.69,0-1.09a3.71,3.71,0,0,0-3.49-3.63A14.39,14.39,0,0,1,16.45.62l0,0a2.24,2.24,0,0,0-3,0l0,0a14.4,14.4,0,0,1-9.8,4.13A3.71,3.71,0,0,0,.07,8.38c0,.39,0,.75,0,1.09v.06C0,13.64-.14,18.74,1.57,23.38A17.62,17.62,0,0,0,5.8,30a22.12,22.12,0,0,0,8.27,4.89l.34.09a2.51,2.51,0,0,0,1,0l.34-.09A22.13,22.13,0,0,0,24,30a17.65,17.65,0,0,0,4.23-6.59C29.94,18.72,29.85,13.61,29.77,9.5ZM26.3,22.66c-1.8,4.89-5.48,8.24-11.25,10.26l-.07,0a.46.46,0,0,1-.18,0l-.06,0C9,30.91,5.3,27.55,3.5,22.67,1.92,18.4,2,13.71,2.09,9.57v0c0-.36,0-.73,0-1.14A1.65,1.65,0,0,1,3.68,6.8,18,18,0,0,0,9.79,5.45a16,16,0,0,0,5-3.35.19.19,0,0,1,.25,0,16,16,0,0,0,5,3.35A18,18,0,0,0,26.13,6.8a1.65,1.65,0,0,1,1.55,1.61c0,.41,0,.78,0,1.14C27.79,13.69,27.88,18.38,26.3,22.66Z"/><path class="cls-2" d="M14.9,8.78a8.72,8.72,0,1,0,8.72,8.72A8.73,8.73,0,0,0,14.9,8.78Zm0,15.39a6.67,6.67,0,1,1,6.67-6.67A6.68,6.68,0,0,1,14.9,24.17Z"/><path class="cls-3" d="M17.41,14.79l-4.05,4.05-1.1-1.1a1,1,0,0,0-1.45,1.45L12.63,21a1,1,0,0,0,1.45,0l4.78-4.78a1,1,0,0,0-1.45-1.45Z"/></g></g></g></svg>