<svg xmlns="http://www.w3.org/2000/svg" xmlns:xlink="http://www.w3.org/1999/xlink" viewBox="0 0 32.92 35"><defs><style>.cls-1{fill:url(#_ÂÁ_Ï_ÌÌ_È_ËÂÌÚ_31);}</style><linearGradient id="_ÂÁ_Ï_ÌÌ_È_ËÂÌÚ_31" y1="17.5" x2="32.92" y2="17.5" gradientUnits="userSpaceOnUse"><stop offset="0" stop-color="#be965d"/><stop offset="0.28" stop-color="#976f40"/><stop offset="0.43" stop-color="#c99b61"/><stop offset="0.56" stop-color="#f0be7b"/><stop offset="0.63" stop-color="#ffcb85"/><stop offset="0.71" stop-color="#eebc79"/><stop offset="0.87" stop-color="#c0935b"/><stop offset="1" stop-color="#976f40"/></linearGradient></defs><title>hotro</title><g id="Layer_2" data-name="Layer 2"><g id="Layer_1-2" data-name="Layer 1"><path class="cls-1" d="M28.43,13.31V12a12.29,12.29,0,0,0-3.21-8.43A11.06,11.06,0,0,0,17,0H15.91A11.06,11.06,0,0,0,7.71,3.53,12.29,12.29,0,0,0,4.5,12v1.35A4.83,4.83,0,0,0,0,18.12v2.1A4.82,4.82,0,0,0,4.82,25H7.53a.88.88,0,0,0,.88-.88v-10a.88.88,0,0,0-.88-.88H6.26V12c0-5.82,4.15-10.2,9.64-10.2H17c5.5,0,9.64,4.38,9.64,10.2v1.33H25.39a.88.88,0,0,0-.88.88v10a.88.88,0,0,0,.88.88h1.24c-.36,4.6-3.53,5.67-5,5.91a3.1,3.1,0,0,0-2.95-2.14H16.47a3.1,3.1,0,0,0,0,6.2h2.21a3.1,3.1,0,0,0,3-2.28,8.35,8.35,0,0,0,3-1c1.6-.93,3.49-2.84,3.74-6.68a4.82,4.82,0,0,0,4.52-4.81v-2.1A4.8,4.8,0,0,0,28.43,13.31Zm-21.77,10H4.83a3.05,3.05,0,0,1-3.05-3.05v-2.1a3.05,3.05,0,0,1,3.05-3.05H6.66Zm12,10H16.47a1.33,1.33,0,0,1,0-2.66h2.21a1.33,1.33,0,1,1,0,2.66Zm12.48-13a3.05,3.05,0,0,1-3.05,3.05H26.28V15.06h1.83a3.05,3.05,0,0,1,3.05,3.05Z"/></g></g></svg>