<svg xmlns="http://www.w3.org/2000/svg" xmlns:xlink="http://www.w3.org/1999/xlink" viewBox="0 0 31.14 35"><defs><style>.cls-1{fill:url(#_ÂÁ_Ï_ÌÌ_È_ËÂÌÚ_31);}</style><linearGradient id="_ÂÁ_Ï_ÌÌ_È_ËÂÌÚ_31" y1="17.5" x2="31.14" y2="17.5" gradientUnits="userSpaceOnUse"><stop offset="0" stop-color="#be965d"/><stop offset="0.28" stop-color="#976f40"/><stop offset="0.43" stop-color="#c99b61"/><stop offset="0.56" stop-color="#f0be7b"/><stop offset="0.63" stop-color="#ffcb85"/><stop offset="0.71" stop-color="#eebc79"/><stop offset="0.87" stop-color="#c0935b"/><stop offset="1" stop-color="#976f40"/></linearGradient></defs><title>showroom</title><g id="Layer_2" data-name="Layer 2"><g id="Layer_1-2" data-name="Layer 1"><g id="location-pin_alt_" data-name="location-pin(alt)"><path class="cls-1" d="M31.14,14c0-7.73-7-14-15.57-14S0,6.27,0,14a13.17,13.17,0,0,0,4,9.33h-.1s5.83,6.43,9.28,10.57l.25.07a2.76,2.76,0,0,0,4.17.13l.37-.2c3.45-4.13,9.28-10.57,9.28-10.57h-.1A13.17,13.17,0,0,0,31.14,14ZM15.57,23.33C9.84,23.33,5.19,19.15,5.19,14S9.84,4.67,15.57,4.67,26,8.85,26,14,21.3,23.33,15.57,23.33Z"/></g></g></g></svg>