<svg xmlns="http://www.w3.org/2000/svg" xmlns:xlink="http://www.w3.org/1999/xlink" viewBox="0 0 39.15 35"><defs><style>.cls-1{fill:url(#_ÂÁ_Ï_ÌÌ_È_ËÂÌÚ_31);}.cls-2{fill:url(#_ÂÁ_Ï_ÌÌ_È_ËÂÌÚ_31-2);}.cls-3{fill:url(#_ÂÁ_Ï_ÌÌ_È_ËÂÌÚ_31-3);}.cls-4{fill:url(#_ÂÁ_Ï_ÌÌ_È_ËÂÌÚ_31-4);}.cls-5{fill:url(#_ÂÁ_Ï_ÌÌ_È_ËÂÌÚ_31-5);}.cls-6{fill:url(#_ÂÁ_Ï_ÌÌ_È_ËÂÌÚ_31-6);}</style><linearGradient id="_ÂÁ_Ï_ÌÌ_È_ËÂÌÚ_31" y1="17.1" x2="34" y2="17.1" gradientUnits="userSpaceOnUse"><stop offset="0" stop-color="#be965d"/><stop offset="0.28" stop-color="#976f40"/><stop offset="0.43" stop-color="#c99b61"/><stop offset="0.56" stop-color="#f0be7b"/><stop offset="0.63" stop-color="#ffcb85"/><stop offset="0.71" stop-color="#eebc79"/><stop offset="0.87" stop-color="#c0935b"/><stop offset="1" stop-color="#976f40"/></linearGradient><linearGradient id="_ÂÁ_Ï_ÌÌ_È_ËÂÌÚ_31-2" x1="22.82" y1="18.92" x2="39.12" y2="18.92" xlink:href="#_ÂÁ_Ï_ÌÌ_È_ËÂÌÚ_31"/><linearGradient id="_ÂÁ_Ï_ÌÌ_È_ËÂÌÚ_31-3" x1="22.78" y1="32.48" x2="39.14" y2="32.48" xlink:href="#_ÂÁ_Ï_ÌÌ_È_ËÂÌÚ_31"/><linearGradient id="_ÂÁ_Ï_ÌÌ_È_ËÂÌÚ_31-4" x1="22.76" y1="27.97" x2="39.11" y2="27.97" xlink:href="#_ÂÁ_Ï_ÌÌ_È_ËÂÌÚ_31"/><linearGradient id="_ÂÁ_Ï_ÌÌ_È_ËÂÌÚ_31-5" x1="22.8" y1="23.45" x2="39.15" y2="23.45" xlink:href="#_ÂÁ_Ï_ÌÌ_È_ËÂÌÚ_31"/><linearGradient id="_ÂÁ_Ï_ÌÌ_È_ËÂÌÚ_31-6" x1="9.05" y1="12.94" x2="18.42" y2="12.94" xlink:href="#_ÂÁ_Ï_ÌÌ_È_ËÂÌÚ_31"/></defs><title>tragop</title><g id="Layer_2" data-name="Layer 2"><g id="Layer_1-2" data-name="Layer 1"><path class="cls-1" d="M34,15.22c-.87-.07-1.84.12-2.37-.28s-.54-1.37-.77-2.1C28.79,6.23,22.79,2.25,15.63,2.73,9.41,3.16,3.89,8.35,2.83,14.79A14.47,14.47,0,0,0,20.61,31.07l.92-.21.26,2.54c-4.65,1.81-12.29.7-17.21-4.63A17.11,17.11,0,0,1,21.18.49C28.11,2.15,33.62,8.44,34,15.22Z"/><path class="cls-2" d="M30.93,21.64c-2-.37-3.94-.71-5.89-1.13a4.35,4.35,0,0,1-1.5-.73c-.93-.65-1-1.39,0-1.89a15.31,15.31,0,0,1,3.76-1.33,19.09,19.09,0,0,1,8.86.32,8.52,8.52,0,0,1,2.05.86c1.19.69,1.22,1.55,0,2.14a16,16,0,0,1-3.58,1.2,32.14,32.14,0,0,1-3.66.38Zm1.53-3.45c-1.24-.61-2.47-1-3.82.39l3.22.68v.15H29.66C31,20,32.32,20.49,33.6,19l-3-.63,0-.22Z"/><path class="cls-3" d="M22.92,30A20.21,20.21,0,0,0,39,30c.24,2.88.48,3.24-2.59,4.19a18.82,18.82,0,0,1-10.9,0C22.9,33.46,22.51,32.75,22.92,30Z"/><path class="cls-4" d="M39,25.48c.24,3-.09,3.6-2.91,4.32a19.82,19.82,0,0,1-10.83-.17c-2.46-.75-2.86-1.53-2.36-4.14A20.29,20.29,0,0,0,39,25.48Z"/><path class="cls-5" d="M22.9,21A20.38,20.38,0,0,0,39,21c.44,2.69.05,3.42-2.47,4.16a19.69,19.69,0,0,1-10.92,0C22.92,24.47,22.58,23.87,22.9,21Z"/><path class="cls-6" d="M18.41,13c0,1.57,0,3.14,0,4.7,0,1.17-.38,1.54-1.54,1.55-2.13,0-4.26,0-6.38,0-1,0-1.45-.38-1.44-1.4s.54-1.28,1.43-1.26c1.38,0,2.76,0,4.14,0,.86,0,1.18-.2,1.16-1.12-.06-2.39,0-4.78,0-7.17,0-1.35.3-1.76,1.28-1.77s1.36.45,1.37,1.84S18.42,11.5,18.41,13Z"/></g></g></svg>