<?xml version="1.0" encoding="utf-8"?>
<!-- Generator: Adobe Illustrator 16.0.0, SVG Export Plug-In . SVG Version: 6.00 Build 0)  -->
<!DOCTYPE svg PUBLIC "-//W3C//DTD SVG 1.1//EN" "http://www.w3.org/Graphics/SVG/1.1/DTD/svg11.dtd">
<svg version="1.1" id="Layer_1" xmlns="http://www.w3.org/2000/svg" xmlns:xlink="http://www.w3.org/1999/xlink" x="0px" y="0px"
	 width="200px" height="200px" viewBox="0 0 200 200" enable-background="new 0 0 200 200" xml:space="preserve">
<g>
	<path fill="none" stroke="#FFFFFF" stroke-width="8" stroke-miterlimit="10" d="M125.637,141.805
		c-1.07-0.335-1.228-0.388-1.228-4.799c0-3.643,1.491-7.312,2.952-10.419c1.592-3.374,3.472-9.048,4.139-14.136
		c1.893-2.19,4.461-6.505,6.104-14.737c1.455-7.252,0.772-9.894-0.183-12.371c-0.106-0.26-0.212-0.518-0.278-0.776
		c-0.363-1.701,0.127-10.534,1.369-17.39c0.863-4.704-0.213-14.705-6.688-22.979c-4.092-5.23-11.924-11.65-26.217-12.543
		l-7.836,0.007c-14.05,0.887-21.878,7.307-25.968,12.537c-6.476,8.273-7.552,18.276-6.695,22.977
		c1.247,6.858,1.742,15.692,1.386,17.359c-0.08,0.292-0.185,0.549-0.288,0.81c-0.958,2.479-1.637,5.118-0.187,12.371
		c1.647,8.231,4.216,12.547,6.104,14.736c0.672,5.091,2.548,10.763,4.137,14.136c1.163,2.469,1.704,5.832,1.704,10.578
		c0,4.411-0.163,4.465-1.159,4.779c-12.854,3.795-33.312,11.188-40.939,14.527l-6.999,3.793
		c17.066,20.942,43.06,34.317,72.181,34.317c29.488,0,55.767-13.712,72.819-35.106l-7.221-3.481
		C158.145,152.441,138.057,145.477,125.637,141.805z"/>
	<path fill="none" stroke="#FFFFFF" stroke-width="8" stroke-miterlimit="10" d="M100,4.432c52.743,0,95.5,42.757,95.5,95.5
		c0,52.743-42.757,95.5-95.5,95.5s-95.5-42.757-95.5-95.5C4.5,47.189,47.257,4.432,100,4.432z"/>
</g>
</svg>
