<?xml version="1.0" encoding="utf-8"?>
<!-- Generator: Adobe Illustrator 16.0.0, SVG Export Plug-In . SVG Version: 6.00 Build 0)  -->
<!DOCTYPE svg PUBLIC "-//W3C//DTD SVG 1.1//EN" "http://www.w3.org/Graphics/SVG/1.1/DTD/svg11.dtd">
<svg version="1.1" id="Layer_1" xmlns="http://www.w3.org/2000/svg" xmlns:xlink="http://www.w3.org/1999/xlink" x="0px" y="0px"
	 width="500px" height="114px" viewBox="0 0 500 114" enable-background="new 0 0 500 114" xml:space="preserve">
<g>
	<g>
		<path fill="#FFFFFF" d="M57.86,0.824c-31.023,0-56.175,25.149-56.175,56.174c0,31.022,25.151,56.177,56.175,56.177
			s56.171-25.155,56.171-56.177C114.032,25.973,88.884,0.824,57.86,0.824z M57.86,107.512c-27.853,0-50.515-22.664-50.515-50.513
			c0-27.85,22.662-50.512,50.515-50.512c27.849,0,50.517,22.662,50.517,50.512C108.377,84.848,85.709,107.512,57.86,107.512z"/>
		<path fill="#FFFFFF" d="M77.646,61.491v5.299c4.197,0.567,7.558,4.117,7.558,8.974c0,3.384-2.742,6.251-6.245,6.251
			c-3.457,0-6.252-2.81-6.252-6.254c0-0.009,0-0.012,0-0.023l0,0l0,0V38.261v-0.003l0,0c0-0.007,0-0.01,0-0.019
			c0-3.45,2.795-6.253,6.252-6.253c3.503,0,6.245,2.862,6.245,6.253c0,4.854-3.361,8.398-7.558,8.968v5.302
			c8.982-0.171,16.208-7.486,16.208-16.505c0-7.647-6.166-16.503-15.651-16.503c-8.003,0-14.486,6.479-14.486,14.48
			c0,0.003,0.003,0.01,0.003,0.022h-0.003v18.51H51.985v-18.51l0,0c0-0.012,0-0.019,0-0.022c0-8-6.483-14.48-14.474-14.48
			c-9.49,0-15.659,8.856-15.659,16.503c0,9.019,7.233,16.334,16.205,16.505v-5.302c-4.197-0.57-7.553-4.114-7.553-8.968
			c0-3.392,2.735-6.253,6.252-6.253c3.452,0,6.247,2.804,6.247,6.253c0,0.008,0,0.012,0,0.019l0,0v0.003v37.477l0,0l0,0
			c0,0.012,0,0.015,0,0.023c0,3.444-2.795,6.254-6.247,6.254c-3.517,0-6.252-2.867-6.252-6.251c0-4.856,3.355-8.406,7.553-8.974
			v-5.299c-8.971,0.171-16.205,7.486-16.205,16.505c0,7.647,6.169,16.509,15.659,16.509c7.99,0,14.474-6.488,14.474-14.485
			c0-0.007,0-0.016,0-0.021v0.003V61.483h11.731v18.518l0.003-0.003c0,0.006-0.003,0.015-0.003,0.021
			c0,7.997,6.483,14.485,14.486,14.485c9.485,0,15.651-8.861,15.651-16.509C93.854,68.978,86.629,61.662,77.646,61.491z"/>
	</g>
	<g>
		<rect x="423.873" y="10.368" fill="#FFFFFF" width="8.115" height="54.533"/>
		<polygon fill="#FFFFFF" points="165.473,10.368 165.473,33.755 140.187,33.755 140.187,10.368 132.067,10.368 132.067,64.901 
			140.187,64.901 140.187,41.518 165.473,41.518 165.473,64.901 173.594,64.901 173.594,10.368 		"/>
		<g>
			<path fill="#FFFFFF" d="M212.843,10.368h-1.918l-25.588,54.533h7.193c1.198,0,2.213-0.753,2.616-1.809l5.405-11.509h22.675
				l5.49,11.702c0.45,0.952,1.409,1.611,2.532,1.616l0,0h7.186L212.843,10.368z M204.193,43.824l7.695-16.392l7.692,16.392H204.193z
				"/>
		</g>
		<g>
			<path fill="#FFFFFF" d="M327.144,10.368h-1.918l-25.593,54.533h7.199c1.195,0,2.212-0.753,2.615-1.809l5.403-11.509h22.674
				l5.495,11.702c0.446,0.952,1.404,1.611,2.527,1.616h7.184L327.144,10.368z M318.493,43.824l7.69-16.392l7.695,16.392H318.493z"/>
		</g>
		<g>
			<path fill="#FFFFFF" d="M285.344,39.228l-26.499-9.801c-0.955-0.372-1.462-1.455-1.237-2.465
				c1.496-4.898,6.044-8.476,11.424-8.476c4.977,0,9.243,3.053,11.044,7.385c0.822,1.961,2.562,1.48,2.783,1.427l5.699-1.481
				c-2.096-8.85-10.03-15.447-19.526-15.447c-9.876,0-18.068,7.137-19.75,16.53c-0.082,0.43-0.146,0.865-0.203,1.305
				c-0.015,0.171-0.025,0.344-0.045,0.512c-0.021,0.263-0.043,0.528-0.058,0.788c0,0.003-0.008,0.299-0.008,0.427
				c0,2.425,1.455,4.5,3.536,5.418c0.009,0.012,20.955,7.763,26.883,9.956c1.6,0.787,1.221,2.495,1.221,2.495
				c-1.332,5.159-6.008,8.984-11.575,8.984c-5.16,0-9.557-3.292-11.233-7.886c-0.289-0.875-1.25-1.737-2.549-1.445l-0.007-0.003
				l-5.842,1.583c1.935,9.066,9.984,15.871,19.631,15.871c9.743,0,17.86-6.939,19.696-16.145c0.001-0.019,0.205-1.166,0.287-1.94
				c0.078-0.704,0.106-2.046,0.106-2.071C289.121,42.232,287.548,40.096,285.344,39.228z"/>
		</g>
		<g>
			<path fill="#FFFFFF" d="M391.499,37.189l19.977-26.821l-8.707,0.003c-0.888,0.01-1.727,0.449-2.237,1.1l-16.598,22.284h-11.343
				V10.368h-8.117v54.533h8.117V41.518h12.011l16.415,22.042c0.498,0.802,1.377,1.342,2.394,1.342c0.038,0,8.731,0,8.731,0
				L391.499,37.189z"/>
		</g>
	</g>
	<g>
		<path fill="#FFFFFF" d="M447.966,61.477c0-1.9-1.531-3.425-3.424-3.425c-1.892,0-3.423,1.524-3.423,3.425
			c0,1.889,1.531,3.425,3.423,3.425C446.435,64.901,447.966,63.365,447.966,61.477z"/>
		<g>
			<g>
				<path fill="#FFFFFF" d="M459.398,64.901h-0.979l-13.027-27.76h3.662c0.611,0,1.132,0.38,1.336,0.92l8.521,18.153l8.569-18.252
					c0.228-0.485,0.716-0.82,1.285-0.82l0,0h3.661L459.398,64.901z"/>
			</g>
			<polygon fill="#FFFFFF" points="494.004,37.142 494.004,55.474 476.916,37.142 475.928,37.142 475.928,64.901 480.059,64.901 
				480.059,46.576 497.146,64.901 498.135,64.901 498.135,37.142 			"/>
		</g>
	</g>
	<g>
		<path fill="#FFFFFF" d="M152.357,95.107c-0.328,2.808-1.366,4.975-3.109,6.499c-1.744,1.527-4.063,2.289-6.956,2.289
			c-3.137,0-5.649-1.124-7.54-3.373c-1.889-2.247-2.835-5.257-2.835-9.025v-2.552c0-2.468,0.44-4.638,1.322-6.509
			c0.882-1.874,2.13-3.311,3.747-4.314c1.616-1.001,3.489-1.503,5.616-1.503c2.819,0,5.081,0.787,6.782,2.36
			c1.703,1.574,2.693,3.754,2.973,6.538h-3.52c-0.303-2.121-0.963-3.658-1.979-4.609c-1.014-0.95-2.434-1.427-4.257-1.427
			c-2.237,0-3.991,0.828-5.26,2.481c-1.27,1.655-1.905,4.01-1.905,7.063V91.6c0,2.882,0.601,5.176,1.805,6.88
			c1.203,1.702,2.888,2.555,5.051,2.555c1.944,0,3.437-0.442,4.477-1.322c1.039-0.881,1.729-2.417,2.069-4.604H152.357z"/>
		<path fill="#FFFFFF" d="M160.277,86.191c1.495-1.837,3.439-2.754,5.835-2.754c4.169,0,6.271,2.352,6.308,7.058v13.037h-3.374
			V90.477c-0.012-1.423-0.337-2.475-0.975-3.155c-0.638-0.68-1.632-1.021-2.981-1.021c-1.094,0-2.054,0.291-2.881,0.876
			c-0.826,0.583-1.47,1.349-1.932,2.297v14.059h-3.374V75.524h3.374V86.191z"/>
		<path fill="#FFFFFF" d="M189.949,103.532c-0.194-0.389-0.352-1.083-0.474-2.08c-1.569,1.628-3.44,2.443-5.616,2.443
			c-1.944,0-3.54-0.55-4.786-1.649c-1.246-1.1-1.869-2.494-1.869-4.186c0-2.055,0.781-3.649,2.343-4.785
			c1.561-1.136,3.759-1.706,6.591-1.706h3.282v-1.55c0-1.179-0.353-2.117-1.058-2.816c-0.704-0.697-1.744-1.048-3.118-1.048
			c-1.203,0-2.212,0.304-3.027,0.911c-0.814,0.606-1.221,1.344-1.221,2.206h-3.392c0-0.984,0.349-1.937,1.048-2.854
			s1.647-1.645,2.844-2.179c1.198-0.533,2.514-0.803,3.947-0.803c2.273,0,4.055,0.569,5.343,1.706
			c1.288,1.136,1.957,2.702,2.005,4.693v9.081c0,1.811,0.231,3.252,0.693,4.321v0.293H189.949z M184.442,76.09h2.771l5.288,4.786
			l-3.592,0.009l-3.081-2.898l-3.1,2.898l-3.61-0.009L184.442,76.09z M184.351,100.961c1.058,0,2.061-0.274,3.009-0.82
			c0.948-0.549,1.634-1.26,2.061-2.135v-4.048h-2.644c-4.133,0-6.2,1.209-6.2,3.629c0,1.059,0.353,1.884,1.058,2.48
			C182.339,100.663,183.246,100.961,184.351,100.961z M193.741,72.936h3.647l-3.665,4.722l-2.571-0.008L193.741,72.936z"/>
		<path fill="#FFFFFF" d="M202.957,79.026v4.776h3.683v2.608h-3.683v12.248c0,0.792,0.165,1.387,0.492,1.781
			c0.328,0.396,0.887,0.594,1.678,0.594c0.389,0,0.923-0.073,1.604-0.22v2.719c-0.887,0.243-1.75,0.362-2.589,0.362
			c-1.507,0-2.644-0.455-3.409-1.367c-0.767-0.911-1.149-2.207-1.149-3.883V86.411h-3.592v-2.608h3.592v-4.776H202.957z"/>
		<path fill="#FFFFFF" d="M224.084,103.532h-3.373V75.524h3.373V103.532z"/>
		<path fill="#FFFFFF" d="M250.84,82.235c0,2.188-0.448,3.729-1.342,4.622c-0.894,0.892-2.312,1.364-4.255,1.412v15.263h-3.21
			l-0.073-1.952c-1.313,1.545-3.239,2.315-5.78,2.315c-2.103,0-3.704-0.611-4.804-1.832c-1.1-1.223-1.656-3.031-1.668-5.425V83.803
			h3.374v12.745c0,2.989,1.215,4.486,3.646,4.486c2.577,0,4.292-0.962,5.142-2.882v-14.35h3.375v2.389
			c0.825-0.023,1.445-0.143,1.86-0.355c0.412-0.214,0.708-0.538,0.882-0.975c0.176-0.438,0.266-1.314,0.266-2.626H250.84z"/>
		<path fill="#FFFFFF" d="M252.289,93.484c0-1.933,0.372-3.669,1.119-5.205c0.747-1.538,1.804-2.729,3.173-3.574
			c1.366-0.844,2.92-1.268,4.66-1.268c2.517,0,4.6,0.839,6.254,2.517c0.862-0.097,1.488-0.45,1.878-1.059
			c0.388-0.605,0.583-1.688,0.583-3.245h2.734c0,3.538-1.258,5.617-3.773,6.237c0.887,1.677,1.33,3.543,1.33,5.597v0.4
			c0,1.92-0.377,3.652-1.129,5.197c-0.756,1.545-1.813,2.73-3.173,3.564c-1.362,0.834-2.918,1.249-4.667,1.249
			c-2.699,0-4.874-0.934-6.521-2.799c-1.646-1.865-2.468-4.325-2.468-7.374V93.484z M255.662,93.885c0,2.189,0.507,3.945,1.52,5.271
			c1.016,1.325,2.382,1.986,4.097,1.986c1.688,0,3.041-0.664,4.054-1.996c1.016-1.331,1.525-3.121,1.525-5.368v-0.293
			c0-2.2-0.516-3.961-1.543-5.288c-1.026-1.325-2.386-1.986-4.073-1.986c-1.678,0-3.027,0.661-4.048,1.986
			C256.172,89.523,255.662,91.419,255.662,93.885z M259.144,107.998c0-0.546,0.166-1.008,0.5-1.385
			c0.336-0.379,0.832-0.566,1.488-0.566s1.154,0.188,1.495,0.566c0.339,0.377,0.51,0.839,0.51,1.385c0,0.547-0.171,1.004-0.51,1.367
			c-0.341,0.365-0.839,0.548-1.495,0.548s-1.152-0.183-1.488-0.548C259.31,109.002,259.144,108.545,259.144,107.998z"/>
		<path fill="#FFFFFF" d="M278.002,83.803l0.11,2.48c1.508-1.897,3.476-2.846,5.907-2.846c4.169,0,6.272,2.352,6.309,7.058v13.037
			h-3.373V90.477c-0.014-1.423-0.338-2.475-0.976-3.155c-0.638-0.68-1.633-1.021-2.981-1.021c-1.094,0-2.055,0.291-2.88,0.876
			c-0.827,0.583-1.472,1.349-1.934,2.297v14.059h-3.373V83.803H278.002z"/>
		<path fill="#FFFFFF" d="M294.912,93.503c0-3.076,0.711-5.521,2.133-7.34c1.422-1.817,3.306-2.726,5.652-2.726
			c2.407,0,4.285,0.853,5.634,2.553l0.165-2.188h3.081v19.254c0,2.553-0.756,4.564-2.271,6.036c-1.514,1.472-3.546,2.206-6.1,2.206
			c-1.422,0-2.812-0.304-4.174-0.912c-1.362-0.607-2.401-1.44-3.119-2.498l1.751-2.023c1.446,1.786,3.215,2.68,5.307,2.68
			c1.641,0,2.918-0.46,3.838-1.386c0.919-0.925,1.376-2.224,1.376-3.901v-1.695c-1.349,1.555-3.191,2.333-5.524,2.333
			c-2.311,0-4.178-0.93-5.605-2.788C295.625,99.247,294.912,96.712,294.912,93.503z M298.303,93.885
			c0,2.226,0.457,3.972,1.368,5.242c0.912,1.272,2.188,1.907,3.829,1.907c2.127,0,3.688-0.967,4.686-2.9v-9.008
			c-1.033-1.883-2.583-2.825-4.649-2.825c-1.641,0-2.923,0.638-3.847,1.914C298.765,89.492,298.303,91.382,298.303,93.885z"/>
		<path fill="#FFFFFF" d="M334.419,101.142c1.202,0,2.257-0.363,3.154-1.093c0.899-0.729,1.399-1.641,1.494-2.735h3.191
			c-0.059,1.131-0.449,2.206-1.168,3.228c-0.714,1.021-1.673,1.837-2.868,2.442c-1.201,0.608-2.467,0.912-3.804,0.912
			c-2.687,0-4.822-0.896-6.408-2.688c-1.586-1.793-2.382-4.246-2.382-7.358v-0.564c0-1.921,0.354-3.628,1.058-5.123
			c0.706-1.496,1.718-2.657,3.038-3.482c1.319-0.826,2.877-1.241,4.676-1.241c2.212,0,4.051,0.663,5.516,1.988
			c1.464,1.325,2.248,3.045,2.343,5.16h-3.191c-0.095-1.276-0.579-2.325-1.448-3.146c-0.872-0.82-1.943-1.23-3.219-1.23
			c-1.714,0-3.041,0.616-3.983,1.851c-0.941,1.233-1.415,3.018-1.415,5.352v0.638c0,2.273,0.469,4.024,1.405,5.252
			S332.68,101.142,334.419,101.142z"/>
		<path fill="#FFFFFF" d="M349.723,86.191c1.495-1.837,3.441-2.754,5.835-2.754c4.169,0,6.271,2.352,6.309,7.058v13.037h-3.374
			V90.477c-0.011-1.423-0.337-2.475-0.975-3.155c-0.638-0.68-1.633-1.021-2.981-1.021c-1.095,0-2.055,0.291-2.88,0.876
			c-0.827,0.583-1.472,1.349-1.934,2.297v14.059h-3.373V75.524h3.373V86.191z"/>
		<path fill="#FFFFFF" d="M366.322,93.484c0-1.933,0.379-3.67,1.14-5.215c0.761-1.543,1.817-2.734,3.173-3.573
			c1.354-0.839,2.903-1.259,4.641-1.259c2.686,0,4.858,0.931,6.518,2.79c1.659,1.86,2.489,4.334,2.489,7.422v0.235
			c0,1.92-0.368,3.645-1.103,5.169c-0.736,1.526-1.787,2.714-3.154,3.566c-1.368,0.851-2.939,1.275-4.714,1.275
			c-2.676,0-4.842-0.93-6.501-2.788c-1.659-1.86-2.488-4.322-2.488-7.385V93.484z M369.714,93.885c0,2.189,0.507,3.945,1.521,5.271
			c1.017,1.325,2.375,1.986,4.076,1.986c1.714,0,3.076-0.671,4.084-2.015c1.009-1.344,1.514-3.222,1.514-5.643
			c0-2.164-0.515-3.916-1.542-5.26c-1.026-1.344-2.392-2.015-4.092-2.015c-1.665,0-3.009,0.661-4.03,1.986
			C370.224,89.523,369.714,91.419,369.714,93.885z"/>
		<path fill="#FFFFFF" d="M402.932,79.026v4.776h3.683v2.608h-3.683v12.248c0,0.792,0.163,1.387,0.492,1.781
			c0.328,0.396,0.889,0.594,1.677,0.594c0.389,0,0.924-0.073,1.604-0.22v2.719c-0.889,0.243-1.75,0.362-2.589,0.362
			c-1.509,0-2.645-0.455-3.41-1.367c-0.766-0.911-1.147-2.207-1.147-3.883V86.411h-3.593v-2.608h3.593v-4.776H402.932z"/>
		<path fill="#FFFFFF" d="M423.029,103.532c-0.194-0.389-0.352-1.083-0.474-2.08c-1.567,1.628-3.441,2.443-5.615,2.443
			c-1.946,0-3.541-0.55-4.787-1.649c-1.245-1.1-1.868-2.494-1.868-4.186c0-2.055,0.78-3.649,2.342-4.785
			c1.563-1.136,3.761-1.706,6.592-1.706h3.282v-1.55c0-1.179-0.352-2.117-1.058-2.816c-0.706-0.697-1.746-1.048-3.118-1.048
			c-1.204,0-2.212,0.304-3.025,0.911c-0.816,0.606-1.223,1.344-1.223,2.206h-3.392c0-0.984,0.351-1.937,1.048-2.854
			c0.699-0.917,1.647-1.645,2.845-2.179c1.198-0.533,2.514-0.803,3.948-0.803c2.272,0,4.053,0.569,5.342,1.706
			c1.289,1.136,1.957,2.702,2.007,4.693v9.081c0,1.811,0.23,3.252,0.692,4.321v0.293H423.029z M417.523,76.09h2.771l5.288,4.786
			l-3.593,0.009l-3.081-2.898l-3.099,2.898l-3.611-0.009L417.523,76.09z M417.432,100.961c1.059,0,2.06-0.274,3.009-0.82
			c0.948-0.549,1.636-1.26,2.061-2.135v-4.048h-2.644c-4.135,0-6.199,1.209-6.199,3.629c0,1.059,0.351,1.884,1.057,2.48
			C415.421,100.663,416.326,100.961,417.432,100.961z M426.821,72.936h3.647l-3.666,4.722l-2.569-0.008L426.821,72.936z"/>
		<path fill="#FFFFFF" d="M436.036,79.026v4.776h3.685v2.608h-3.685v12.248c0,0.792,0.165,1.387,0.494,1.781
			c0.327,0.396,0.887,0.594,1.677,0.594c0.388,0,0.924-0.073,1.604-0.22v2.719c-0.889,0.243-1.75,0.362-2.589,0.362
			c-1.509,0-2.645-0.455-3.41-1.367c-0.766-0.911-1.147-2.207-1.147-3.883V86.411h-3.593v-2.608h3.593v-4.776H436.036z"/>
		<path fill="#FFFFFF" d="M461.414,101.142c1.203,0,2.256-0.363,3.154-1.093s1.398-1.641,1.495-2.735h3.19
			c-0.06,1.131-0.45,2.206-1.166,3.228c-0.717,1.021-1.674,1.837-2.871,2.442c-1.199,0.608-2.467,0.912-3.803,0.912
			c-2.686,0-4.823-0.896-6.409-2.688c-1.586-1.793-2.379-4.246-2.379-7.358v-0.564c0-1.921,0.353-3.628,1.057-5.123
			c0.706-1.496,1.718-2.657,3.036-3.482c1.319-0.826,2.877-1.241,4.678-1.241c2.21,0,4.051,0.663,5.514,1.988
			c1.466,1.325,2.248,3.045,2.344,5.16h-3.19c-0.097-1.276-0.58-2.325-1.45-3.146c-0.868-0.82-1.941-1.23-3.217-1.23
			c-1.715,0-3.042,0.616-3.985,1.851c-0.941,1.233-1.413,3.018-1.413,5.352v0.638c0,2.273,0.47,4.024,1.405,5.252
			C458.338,100.529,459.677,101.142,461.414,101.142z"/>
		<path fill="#FFFFFF" d="M485.525,103.532c-0.194-0.389-0.351-1.083-0.474-2.08c-1.568,1.628-3.44,2.443-5.616,2.443
			c-1.944,0-3.541-0.55-4.786-1.649c-1.244-1.1-1.869-2.494-1.869-4.186c0-2.055,0.781-3.649,2.344-4.785s3.759-1.706,6.591-1.706
			h3.282v-1.55c0-1.179-0.353-2.117-1.059-2.816c-0.704-0.697-1.744-1.048-3.117-1.048c-1.203,0-2.211,0.304-3.026,0.911
			c-0.815,0.606-1.223,1.344-1.223,2.206h-3.39c0-0.984,0.349-1.937,1.048-2.854c0.697-0.917,1.646-1.645,2.844-2.179
			c1.199-0.533,2.513-0.803,3.948-0.803c2.273,0,4.053,0.569,5.342,1.706c1.288,1.136,1.956,2.702,2.006,4.693v9.081
			c0,1.811,0.231,3.252,0.692,4.321v0.293H485.525z M479.928,100.961c1.058,0,2.062-0.274,3.01-0.82
			c0.946-0.549,1.634-1.26,2.06-2.135v-4.048h-2.645c-4.133,0-6.198,1.209-6.198,3.629c0,1.059,0.352,1.884,1.058,2.48
			C477.916,100.663,478.821,100.961,479.928,100.961z M480.257,80.576l-0.019-2.791c0.912-0.06,1.581-0.181,2.005-0.363
			c0.425-0.183,0.64-0.512,0.64-0.985s-0.277-0.829-0.831-1.066c-0.552-0.237-1.285-0.355-2.197-0.355l0.128-1.934
			c1.811,0,3.186,0.314,4.121,0.938c0.935,0.627,1.403,1.455,1.403,2.49c0,0.742-0.236,1.354-0.711,1.842
			c-0.474,0.487-1.18,0.796-2.114,0.929l-0.019,1.296H480.257z"/>
		<path fill="#FFFFFF" d="M494.321,101.817c0-0.553,0.168-1.016,0.502-1.39s0.829-0.562,1.484-0.562
			c0.658,0,1.154,0.188,1.497,0.562c0.341,0.374,0.51,0.837,0.51,1.39c0,0.552-0.169,1.011-0.51,1.371
			c-0.343,0.363-0.839,0.543-1.497,0.543c-0.655,0-1.15-0.18-1.484-0.543C494.489,102.828,494.321,102.369,494.321,101.817z
			 M497.731,96.006h-3.046l-0.236-19.022h3.536L497.731,96.006z"/>
	</g>
</g>
</svg>
